<svg id="svg" version="1.1" xmlns="http://www.w3.org/2000/svg" xmlns:xlink="http://www.w3.org/1999/xlink" width="400" height="400" viewBox="0, 0, 400,400"><g id="svgg"><path id="path0" d="M190.900 9.876 C 191.285 9.976,191.915 9.976,192.300 9.876 C 192.685 9.775,192.370 9.693,191.600 9.693 C 190.830 9.693,190.515 9.775,190.900 9.876 M237.600 26.179 C 237.600 26.289,238.140 26.659,238.800 27.000 C 239.460 27.341,240.000 27.531,240.000 27.421 C 240.000 27.311,239.460 26.941,238.800 26.600 C 238.140 26.259,237.600 26.069,237.600 26.179 M252.108 35.136 C 251.853 35.296,252.065 35.684,252.643 36.119 C 253.187 36.527,253.600 36.644,253.600 36.390 C 253.600 35.699,252.580 34.841,252.108 35.136 M257.333 39.400 C 257.333 39.730,257.568 40.000,257.854 40.000 C 258.153 40.000,258.277 39.744,258.145 39.400 C 258.018 39.070,257.784 38.800,257.624 38.800 C 257.464 38.800,257.333 39.070,257.333 39.400 M260.200 41.600 C 260.336 41.820,260.246 42.000,260.000 42.000 C 259.754 42.000,259.663 42.178,259.797 42.395 C 259.936 42.621,259.779 42.690,259.431 42.557 C 259.004 42.393,242.349 58.795,203.983 97.161 C 151.094 150.052,149.197 152.000,150.573 152.000 C 151.358 152.000,152.000 151.820,152.000 151.600 C 152.000 151.367,153.325 151.200,155.176 151.200 C 156.923 151.200,158.464 151.380,158.600 151.600 C 158.736 151.820,159.636 152.000,160.600 152.000 C 161.564 152.000,162.464 152.180,162.600 152.400 C 162.736 152.620,163.178 152.800,163.583 152.800 C 165.940 152.800,175.155 159.390,175.190 161.100 C 175.195 161.375,175.366 161.600,175.568 161.600 C 175.771 161.600,176.751 163.265,177.745 165.300 C 188.798 187.919,166.115 210.344,143.637 199.019 C 138.167 196.264,132.729 190.019,131.254 184.800 C 130.975 183.810,130.578 182.447,130.373 181.772 C 129.865 180.097,129.887 171.600,130.400 171.600 C 130.620 171.600,130.800 171.311,130.800 170.958 C 130.800 170.486,130.500 170.619,129.674 171.458 C 129.055 172.086,127.262 173.848,125.690 175.374 L 122.831 178.147 120.373 176.009 C 119.020 174.832,115.370 171.372,112.262 168.320 C 106.316 162.481,105.671 162.117,107.502 165.636 C 109.342 169.173,110.405 173.378,110.386 177.046 C 110.287 196.092,89.515 208.200,72.876 198.910 C 70.334 197.491,70.455 197.950,73.440 201.043 C 79.143 206.955,83.856 211.927,85.079 213.322 L 86.358 214.781 49.202 251.947 C 28.766 272.388,11.945 289.012,11.823 288.889 C 11.700 288.767,11.600 288.967,11.600 289.333 C 11.600 290.322,10.884 290.141,10.674 289.100 C 10.574 288.605,10.492 293.375,10.491 299.700 C 10.490 309.637,10.571 311.200,11.088 311.200 C 11.449 311.200,11.596 311.432,11.460 311.787 C 11.336 312.110,11.407 312.481,11.617 312.611 C 11.828 312.741,12.000 313.216,12.000 313.666 C 12.000 314.217,12.190 314.413,12.580 314.263 C 12.967 314.115,13.085 314.233,12.937 314.620 C 12.802 314.972,12.957 315.200,13.330 315.200 C 13.669 315.200,14.060 315.560,14.200 316.000 C 14.340 316.440,14.774 316.800,15.165 316.800 C 15.556 316.800,16.202 317.160,16.600 317.600 C 16.998 318.040,17.746 318.400,18.262 318.400 C 18.778 318.400,19.200 318.575,19.200 318.790 C 19.200 319.039,29.464 319.185,47.679 319.195 C 63.343 319.203,76.258 319.362,76.379 319.548 C 76.501 319.735,78.934 319.923,81.786 319.966 C 84.639 320.010,87.159 320.191,87.386 320.370 C 87.614 320.548,89.237 320.731,90.994 320.776 C 92.750 320.821,94.370 320.998,94.594 321.170 C 94.817 321.342,96.169 321.523,97.598 321.573 C 99.027 321.624,100.377 321.801,100.598 321.968 C 100.819 322.135,101.990 322.314,103.200 322.366 C 104.410 322.418,105.571 322.626,105.780 322.830 C 105.989 323.033,107.103 323.200,108.256 323.200 C 109.409 323.200,110.474 323.396,110.622 323.635 C 110.769 323.874,111.230 323.981,111.644 323.873 C 112.059 323.764,113.422 323.943,114.675 324.270 C 115.927 324.597,117.367 324.785,117.876 324.688 C 118.384 324.590,118.800 324.666,118.800 324.855 C 118.800 325.045,119.610 325.200,120.600 325.200 C 121.590 325.200,122.400 325.346,122.400 325.525 C 122.400 325.704,123.255 325.894,124.300 325.948 C 125.345 326.001,126.371 326.215,126.580 326.422 C 126.789 326.630,127.644 326.800,128.480 326.800 C 129.316 326.800,130.000 326.980,130.000 327.200 C 130.000 327.420,130.979 327.600,132.176 327.600 C 133.373 327.600,134.464 327.780,134.600 328.000 C 134.736 328.220,136.097 328.400,137.624 328.400 C 139.208 328.400,140.400 328.572,140.400 328.800 C 140.400 329.037,141.859 329.200,143.976 329.200 C 146.165 329.200,147.659 329.372,147.827 329.644 C 148.274 330.367,171.862 329.325,181.000 328.178 C 192.710 326.709,205.534 323.745,214.600 320.412 C 217.986 319.167,222.135 317.561,223.500 316.966 C 224.215 316.655,225.475 316.110,226.300 315.755 C 248.216 306.339,268.426 290.921,285.755 270.399 C 289.840 265.561,296.935 255.234,300.250 249.300 C 300.773 248.365,301.678 246.745,302.263 245.700 C 307.239 236.805,312.923 222.887,315.618 213.000 C 316.787 208.708,317.678 205.154,317.972 203.600 C 319.610 194.960,319.959 192.851,320.886 186.000 C 321.579 180.877,321.584 156.330,320.893 151.400 C 319.895 144.276,319.564 142.172,319.170 140.436 C 318.936 139.408,318.917 138.523,319.124 138.316 C 319.551 137.889,319.253 133.958,318.753 133.420 C 318.559 133.211,318.400 132.457,318.400 131.744 C 318.400 131.031,318.220 130.336,318.000 130.200 C 317.780 130.064,317.600 129.344,317.600 128.600 C 317.600 127.856,317.420 127.136,317.200 127.000 C 316.980 126.864,316.800 126.234,316.800 125.600 C 316.800 124.966,316.620 124.336,316.400 124.200 C 316.180 124.064,316.000 123.423,316.000 122.776 C 316.000 122.129,315.820 121.600,315.600 121.600 C 315.380 121.600,315.200 121.060,315.200 120.400 C 315.200 119.740,315.020 119.200,314.800 119.200 C 314.580 119.200,314.400 118.660,314.400 118.000 C 314.400 117.340,314.220 116.800,314.000 116.800 C 313.780 116.800,313.600 116.260,313.600 115.600 C 313.600 114.940,313.420 114.400,313.200 114.400 C 312.980 114.400,312.800 113.849,312.800 113.176 C 312.800 112.463,312.633 112.056,312.400 112.200 C 312.053 112.414,311.791 111.257,311.963 110.270 C 311.994 110.089,311.835 110.055,311.610 110.194 C 311.371 110.342,311.200 110.021,311.200 109.424 C 311.200 108.861,311.020 108.400,310.800 108.400 C 310.580 108.400,310.400 107.860,310.400 107.200 C 310.400 106.540,310.220 106.000,310.000 106.000 C 309.780 106.000,309.600 105.640,309.600 105.200 C 309.600 104.760,309.420 104.400,309.200 104.400 C 308.980 104.400,308.800 104.051,308.800 103.624 C 308.800 103.197,308.634 102.745,308.431 102.619 C 308.228 102.494,307.934 101.808,307.778 101.095 C 307.345 99.118,303.063 90.759,302.333 90.467 C 302.150 90.393,301.996 90.123,301.991 89.867 C 301.986 89.610,301.630 88.950,301.200 88.400 C 300.770 87.850,300.414 87.119,300.409 86.775 C 300.404 86.432,300.040 85.764,299.600 85.292 C 299.160 84.820,298.800 84.323,298.800 84.189 C 298.800 84.054,298.260 83.159,297.600 82.200 C 296.940 81.241,296.400 80.263,296.400 80.028 C 296.400 79.793,296.220 79.600,296.000 79.600 C 295.780 79.600,295.600 79.330,295.600 79.000 C 295.600 78.670,295.420 78.400,295.200 78.400 C 294.980 78.400,294.800 78.130,294.800 77.800 C 294.800 77.470,294.575 77.245,294.300 77.300 C 294.025 77.355,293.851 77.156,293.914 76.859 C 293.976 76.561,293.661 76.000,293.214 75.612 C 292.766 75.224,292.400 74.768,292.400 74.600 C 292.400 74.432,292.028 73.971,291.574 73.577 C 291.119 73.183,290.759 72.757,290.774 72.630 C 290.853 71.939,290.733 71.645,290.053 70.861 C 289.642 70.388,289.092 70.000,288.829 70.000 C 288.567 70.000,288.464 69.820,288.600 69.600 C 288.736 69.380,288.657 69.200,288.424 69.200 C 288.191 69.200,288.000 68.970,288.000 68.689 C 288.000 68.408,287.685 67.897,287.300 67.554 C 286.270 66.636,284.800 64.839,284.800 64.497 C 284.799 63.957,282.924 62.009,282.660 62.274 C 282.517 62.417,282.400 62.310,282.400 62.038 C 282.400 61.538,281.411 60.359,281.014 60.386 C 280.896 60.394,280.804 60.306,280.808 60.192 C 280.823 59.825,279.808 58.879,279.560 59.028 C 279.428 59.108,279.086 58.735,278.800 58.200 C 278.514 57.665,278.122 57.325,277.930 57.443 C 277.738 57.562,277.606 57.511,277.637 57.330 C 277.785 56.480,277.547 56.000,276.976 56.000 C 276.633 56.000,276.435 55.865,276.534 55.700 C 276.771 55.309,275.760 54.374,275.443 54.691 C 275.309 54.824,275.200 54.713,275.200 54.443 C 275.200 54.173,274.992 54.081,274.738 54.238 C 274.473 54.402,274.384 54.349,274.530 54.113 C 274.828 53.631,273.440 51.894,273.059 52.274 C 272.917 52.417,272.800 52.233,272.800 51.867 C 272.800 51.259,272.335 51.012,271.470 51.163 C 271.289 51.194,271.247 51.048,271.376 50.839 C 271.506 50.629,271.249 50.343,270.806 50.202 C 270.363 50.061,270.000 49.678,270.000 49.349 C 270.000 49.021,269.819 48.865,269.597 49.002 C 269.199 49.248,268.006 48.324,267.935 47.714 C 267.843 46.925,267.485 46.424,267.158 46.626 C 266.961 46.748,266.800 46.583,266.800 46.261 C 266.800 45.861,266.514 45.738,265.900 45.872 C 265.228 46.019,265.142 45.969,265.558 45.675 C 266.000 45.363,265.855 45.145,264.858 44.630 C 264.166 44.272,263.600 43.793,263.600 43.566 C 263.600 43.339,263.421 43.263,263.203 43.398 C 262.985 43.533,262.490 43.440,262.103 43.191 C 261.438 42.764,261.438 42.751,262.100 42.957 C 262.485 43.077,262.800 43.020,262.800 42.830 C 262.800 42.341,261.611 41.946,261.096 42.264 C 260.822 42.434,260.758 42.288,260.919 41.866 C 261.089 41.424,260.969 41.200,260.564 41.200 C 260.228 41.200,260.064 41.380,260.200 41.600 M232.200 152.463 C 250.991 157.492,257.368 181.086,243.638 194.783 C 235.611 202.791,222.810 204.248,212.848 198.289 C 197.277 188.974,196.806 166.107,211.978 156.051 C 214.077 154.660,214.807 154.275,217.200 153.299 C 221.213 151.662,227.829 151.293,232.200 152.463 " stroke="none" fill="#44cdf9" fill-rule="evenodd"></path><path id="path1" d="M373.600 180.400 C 373.930 180.613,374.052 180.791,373.871 180.794 C 373.510 180.801,374.604 182.000,374.971 182.000 C 375.097 182.000,375.200 181.807,375.200 181.571 C 375.200 180.971,374.162 179.999,373.529 180.006 C 373.138 180.011,373.157 180.114,373.600 180.400 M375.113 183.088 C 375.008 183.492,375.137 184.026,375.401 184.272 C 375.766 184.613,353.821 206.805,284.241 276.460 C 233.838 326.917,192.540 368.064,192.466 367.898 C 192.392 367.731,192.167 367.697,191.966 367.821 C 191.765 367.945,191.600 367.844,191.600 367.597 C 191.600 367.319,191.273 367.250,190.750 367.416 C 190.125 367.614,189.982 367.552,190.212 367.181 C 190.408 366.863,190.362 366.776,190.086 366.947 C 189.845 367.096,189.279 366.822,188.828 366.338 C 187.788 365.222,187.341 365.579,188.338 366.729 C 188.747 367.200,189.164 367.502,189.266 367.401 C 189.367 367.299,190.115 367.843,190.926 368.608 C 191.738 369.374,192.557 370.000,192.747 370.000 C 192.937 370.000,193.566 370.373,194.146 370.829 C 194.726 371.285,195.205 371.510,195.212 371.329 C 195.219 371.148,195.409 371.316,195.634 371.703 C 196.055 372.426,199.200 374.229,199.200 373.747 C 199.200 373.599,199.536 373.865,199.947 374.339 C 200.358 374.812,200.988 375.200,201.347 375.200 C 201.706 375.200,202.000 375.380,202.000 375.600 C 202.000 375.820,202.360 376.000,202.800 376.000 C 203.240 376.000,203.600 376.180,203.600 376.400 C 203.600 376.620,203.960 376.800,204.400 376.800 C 204.840 376.800,205.200 376.980,205.200 377.200 C 205.200 377.420,205.470 377.600,205.800 377.600 C 206.130 377.600,206.400 377.780,206.400 378.000 C 206.400 378.220,206.670 378.400,207.000 378.400 C 207.330 378.400,207.600 378.591,207.600 378.824 C 207.600 379.057,207.765 379.145,207.968 379.020 C 208.170 378.895,208.607 379.064,208.939 379.396 C 209.271 379.728,209.916 380.000,210.371 380.000 C 210.827 380.000,211.200 380.180,211.200 380.400 C 211.200 380.620,211.560 380.800,212.000 380.800 C 212.440 380.800,212.800 380.980,212.800 381.200 C 212.800 381.420,213.261 381.600,213.824 381.600 C 214.404 381.600,214.740 381.773,214.600 382.000 C 214.460 382.227,214.796 382.400,215.376 382.400 C 215.939 382.400,216.400 382.580,216.400 382.800 C 216.400 383.020,216.839 383.200,217.376 383.200 C 217.913 383.200,218.464 383.380,218.600 383.600 C 218.736 383.820,219.197 384.000,219.624 384.000 C 220.051 384.000,220.400 384.142,220.400 384.315 C 220.400 384.488,220.802 384.660,221.294 384.697 C 221.786 384.734,222.251 384.952,222.327 385.182 C 222.404 385.412,222.962 385.600,223.567 385.600 C 224.172 385.600,224.792 385.725,224.945 385.878 C 225.098 386.031,225.525 386.201,225.894 386.255 C 226.264 386.309,226.933 386.523,227.383 386.729 C 229.150 387.541,234.013 388.920,234.255 388.678 C 234.397 388.537,234.982 388.666,235.556 388.966 C 237.065 389.754,240.531 390.478,241.328 390.172 C 241.703 390.028,242.271 390.127,242.590 390.392 C 242.909 390.657,244.077 390.898,245.185 390.929 C 246.293 390.960,247.200 391.083,247.200 391.202 C 247.200 391.321,248.413 391.473,249.895 391.539 C 251.377 391.606,252.682 391.793,252.795 391.955 C 252.908 392.116,255.514 392.285,258.586 392.330 C 261.658 392.375,264.349 392.589,264.566 392.806 C 264.783 393.023,265.689 393.174,266.580 393.143 L 268.200 393.086 266.600 392.800 L 265.000 392.514 266.676 392.457 C 267.598 392.426,268.464 392.580,268.600 392.800 C 268.886 393.263,269.649 393.347,269.500 392.900 C 269.390 392.569,269.737 392.397,270.500 392.406 C 270.833 392.410,270.800 392.542,270.400 392.800 C 269.932 393.102,270.043 393.189,270.900 393.194 C 271.505 393.197,272.000 393.026,272.000 392.814 C 272.000 392.602,272.382 392.224,272.848 391.974 C 273.315 391.724,273.591 391.691,273.462 391.900 C 273.117 392.459,275.729 392.435,276.091 391.876 C 276.320 391.523,276.502 391.555,276.794 392.000 C 277.011 392.330,277.191 392.419,277.194 392.197 C 277.197 391.975,304.565 364.435,338.012 330.997 C 371.459 297.559,398.928 269.796,399.055 269.303 C 399.182 268.809,399.409 268.482,399.561 268.576 C 399.713 268.670,399.879 267.409,399.931 265.773 C 399.991 263.876,399.870 262.800,399.598 262.800 C 399.310 262.800,399.324 262.516,399.642 261.921 C 399.988 261.275,400.040 258.490,399.839 251.421 C 399.511 239.847,399.521 240.000,399.120 240.000 C 398.944 240.000,398.800 238.956,398.800 237.680 C 398.800 236.404,398.629 235.189,398.419 234.979 C 398.210 234.770,397.992 233.911,397.936 233.071 C 397.879 232.231,397.690 231.456,397.516 231.348 C 397.342 231.241,397.200 230.443,397.200 229.576 C 397.200 228.709,397.040 228.000,396.844 228.000 C 396.648 228.000,396.391 227.415,396.272 226.700 C 395.924 224.597,395.562 223.055,395.215 222.200 C 395.037 221.760,394.673 220.590,394.407 219.600 C 394.140 218.610,393.760 217.487,393.561 217.105 C 393.362 216.723,393.200 216.048,393.200 215.605 C 393.200 215.162,393.020 214.800,392.800 214.800 C 392.580 214.800,392.400 214.350,392.400 213.800 C 392.400 213.250,392.220 212.800,392.000 212.800 C 391.780 212.800,391.600 212.350,391.600 211.800 C 391.600 211.250,391.420 210.800,391.200 210.800 C 390.980 210.800,390.800 210.451,390.800 210.024 C 390.800 209.597,390.617 209.134,390.393 208.996 C 390.170 208.858,390.086 208.584,390.207 208.389 C 390.328 208.193,390.264 207.710,390.064 207.316 C 388.606 204.444,388.000 203.048,388.000 202.562 C 388.000 202.253,387.820 202.000,387.600 202.000 C 387.380 202.000,387.200 201.640,387.200 201.200 C 387.200 200.760,387.020 200.400,386.800 200.400 C 386.580 200.400,386.400 200.059,386.400 199.643 C 386.400 199.226,386.119 198.778,385.775 198.646 C 385.431 198.514,385.252 198.240,385.377 198.037 C 385.502 197.834,385.414 197.605,385.181 197.527 C 384.947 197.449,384.695 197.119,384.619 196.793 C 384.270 195.282,383.877 194.400,383.553 194.400 C 383.359 194.400,383.200 194.164,383.200 193.875 C 383.200 193.587,382.840 192.964,382.400 192.492 C 381.960 192.020,381.600 191.345,381.600 190.993 C 381.600 190.641,381.420 190.464,381.200 190.600 C 380.980 190.736,380.800 190.477,380.800 190.024 C 380.800 189.571,380.620 189.200,380.400 189.200 C 380.180 189.200,380.000 188.949,380.000 188.643 C 380.000 188.336,379.719 187.978,379.375 187.846 C 379.031 187.714,378.858 187.430,378.990 187.216 C 379.123 187.002,378.864 186.597,378.416 186.317 C 377.967 186.037,377.600 185.525,377.600 185.179 C 377.600 184.082,375.349 182.189,375.113 183.088 M399.335 270.100 C 398.811 270.939,398.849 271.556,399.412 271.340 C 399.705 271.227,399.919 270.790,399.888 270.368 C 399.820 269.465,399.752 269.432,399.335 270.100 M399.289 272.100 C 399.005 272.448,399.038 272.745,399.396 273.075 C 399.807 273.453,399.901 273.351,399.856 272.575 C 399.791 271.438,399.814 271.458,399.289 272.100 M398.475 276.271 C 398.847 276.369,399.227 276.843,399.321 277.325 C 399.461 278.045,399.501 278.006,399.546 277.100 C 399.590 276.197,399.438 276.008,398.700 276.046 C 398.062 276.079,397.997 276.145,398.475 276.271 " stroke="none" fill="#8cebbb" fill-rule="evenodd"></path><path id="path2" d="M319.018 138.372 C 318.891 138.576,318.964 139.521,319.179 140.472 C 319.565 142.175,319.900 144.309,320.893 151.400 C 321.584 156.330,321.579 180.877,320.886 186.000 C 319.959 192.851,319.610 194.960,317.972 203.600 C 317.678 205.154,316.787 208.708,315.618 213.000 C 312.923 222.887,307.239 236.805,302.263 245.700 C 301.678 246.745,300.773 248.365,300.250 249.300 C 296.935 255.234,289.840 265.561,285.755 270.399 C 268.382 290.973,248.415 306.196,226.200 315.803 C 225.320 316.184,224.060 316.728,223.400 317.014 C 222.106 317.573,217.826 319.226,214.600 320.412 C 199.499 325.963,177.592 329.589,159.100 329.598 C 154.916 329.600,153.834 330.439,156.000 332.000 C 156.440 332.317,156.800 332.897,156.800 333.288 C 156.800 333.680,156.980 334.000,157.200 334.000 C 157.420 334.000,157.600 334.281,157.600 334.624 C 157.600 334.967,157.780 335.136,158.000 335.000 C 158.220 334.864,158.400 335.032,158.400 335.372 C 158.400 336.164,160.827 339.663,163.400 342.581 C 164.500 343.828,165.359 344.923,165.310 345.014 C 165.260 345.106,166.295 346.259,167.610 347.578 C 168.924 348.897,170.003 350.296,170.006 350.688 C 170.011 351.294,170.070 351.311,170.400 350.800 C 170.733 350.285,170.789 350.297,170.794 350.886 C 170.797 351.263,171.160 351.765,171.600 352.000 C 172.040 352.235,172.400 352.702,172.400 353.038 C 172.400 353.373,172.555 353.551,172.745 353.434 C 173.203 353.151,176.032 356.226,175.676 356.621 C 175.524 356.790,175.616 356.804,175.880 356.653 C 176.157 356.494,176.551 356.735,176.812 357.223 C 177.061 357.688,177.361 357.972,177.479 357.854 C 177.597 357.737,178.690 358.621,179.908 359.820 C 181.126 361.019,182.365 362.000,182.662 362.000 C 182.958 362.000,183.200 362.151,183.200 362.336 C 183.200 362.520,183.660 362.881,184.223 363.137 C 184.785 363.394,185.134 363.783,184.999 364.002 C 184.864 364.221,185.033 364.400,185.376 364.400 C 185.719 364.400,186.000 364.591,186.000 364.824 C 186.000 365.057,186.181 365.135,186.403 364.998 C 186.624 364.861,186.913 365.030,187.045 365.372 C 187.176 365.715,187.459 365.887,187.673 365.755 C 188.271 365.385,189.600 366.933,189.600 368.000 C 189.600 368.220,189.791 368.400,190.024 368.400 C 190.257 368.400,190.348 368.239,190.226 368.042 C 190.104 367.845,190.304 367.569,190.670 367.428 C 191.036 367.288,191.483 367.404,191.662 367.686 C 191.841 367.969,191.993 368.020,192.000 367.800 C 192.008 367.533,192.110 367.533,192.306 367.800 C 192.472 368.026,232.456 328.301,284.241 276.460 C 353.821 206.805,375.766 184.613,375.401 184.272 C 374.869 183.775,375.086 182.282,375.641 182.625 C 375.833 182.744,375.884 182.563,375.754 182.223 C 375.623 181.883,375.354 181.705,375.155 181.828 C 374.718 182.098,373.535 180.998,373.886 180.648 C 374.022 180.511,373.878 180.397,373.567 180.394 C 373.104 180.389,373.098 180.326,373.534 180.049 C 373.944 179.790,373.815 179.513,372.980 178.856 C 372.382 178.385,372.100 178.000,372.353 178.000 C 372.607 178.000,371.956 177.153,370.907 176.117 C 369.858 175.081,369.319 174.477,369.709 174.774 C 370.325 175.242,370.385 175.227,370.166 174.657 C 369.931 174.044,369.460 173.825,368.670 173.963 C 368.489 173.994,368.455 173.834,368.596 173.607 C 368.736 173.380,368.569 173.086,368.225 172.954 C 367.881 172.822,367.600 172.542,367.600 172.331 C 367.600 172.121,367.060 171.494,366.400 170.939 C 365.740 170.383,365.200 169.675,365.200 169.364 C 365.200 169.054,365.026 168.800,364.813 168.800 C 364.600 168.800,364.195 168.360,363.913 167.821 C 363.631 167.283,363.288 166.878,363.150 166.921 C 363.013 166.965,362.203 166.318,361.350 165.485 C 355.814 160.072,353.989 158.400,353.620 158.400 C 353.389 158.400,352.459 157.680,351.552 156.800 C 350.645 155.920,349.731 155.200,349.520 155.200 C 349.310 155.200,348.472 154.525,347.659 153.700 C 346.847 152.875,345.916 152.141,345.591 152.070 C 345.266 151.998,344.940 151.773,344.867 151.570 C 344.793 151.366,344.378 151.200,343.943 151.200 C 343.508 151.200,343.264 151.020,343.400 150.800 C 343.536 150.580,343.406 150.400,343.112 150.400 C 342.817 150.400,342.324 150.050,342.015 149.621 C 341.707 149.193,341.306 148.935,341.124 149.047 C 340.943 149.159,340.686 148.969,340.554 148.625 C 340.422 148.281,340.002 148.000,339.619 148.000 C 339.237 148.000,338.598 147.640,338.200 147.200 C 337.802 146.760,337.317 146.400,337.122 146.400 C 336.695 146.400,334.255 144.723,334.067 144.300 C 333.993 144.135,333.681 144.000,333.373 144.000 C 333.065 144.000,331.782 143.473,330.523 142.828 C 329.264 142.183,328.091 141.744,327.917 141.851 C 327.743 141.959,327.600 141.857,327.600 141.624 C 327.600 141.391,327.240 141.200,326.800 141.200 C 326.360 141.200,326.000 141.020,326.000 140.800 C 326.000 140.580,325.640 140.400,325.200 140.400 C 324.760 140.400,324.400 140.254,324.400 140.075 C 324.400 139.896,323.770 139.502,323.000 139.200 C 322.230 138.898,321.600 138.504,321.600 138.325 C 321.600 137.874,319.300 137.915,319.018 138.372 M399.045 269.300 C 398.708 270.076,374.023 295.039,337.840 331.197 C 304.488 364.525,277.200 391.933,277.200 392.104 C 277.200 392.521,281.176 392.363,281.440 391.936 C 281.554 391.751,281.827 391.600,282.047 391.600 C 282.267 391.600,282.337 391.778,282.203 391.995 C 282.063 392.222,282.223 392.289,282.579 392.153 C 282.921 392.022,283.200 391.783,283.200 391.623 C 283.200 391.462,283.993 391.402,284.962 391.489 C 285.931 391.575,286.840 391.460,286.981 391.231 C 287.155 390.950,287.478 390.967,287.986 391.284 C 288.565 391.646,288.874 391.636,289.350 391.241 C 289.688 390.961,290.181 390.864,290.444 391.027 C 290.748 391.215,290.819 391.154,290.638 390.862 C 290.481 390.608,290.528 390.400,290.743 390.400 C 290.958 390.400,291.224 390.625,291.335 390.900 C 291.496 391.300,291.543 391.300,291.568 390.900 C 291.586 390.625,291.881 390.400,292.224 390.400 C 292.606 390.400,292.738 390.593,292.565 390.900 C 292.339 391.300,292.390 391.300,292.821 390.900 C 293.118 390.625,294.213 390.400,295.256 390.400 C 296.299 390.400,297.281 390.192,297.438 389.938 C 297.627 389.633,297.546 389.586,297.200 389.800 C 296.864 390.008,296.773 389.967,296.947 389.686 C 297.095 389.446,297.605 389.324,298.079 389.415 C 298.553 389.506,299.179 389.383,299.470 389.142 C 299.856 388.821,300.000 388.824,300.000 389.151 C 300.000 389.398,300.270 389.600,300.600 389.600 C 300.930 389.600,301.155 389.377,301.100 389.105 C 301.035 388.782,301.453 388.633,302.300 388.677 C 303.015 388.714,303.600 388.555,303.600 388.323 C 303.600 388.044,303.785 388.055,304.147 388.356 C 304.564 388.702,304.817 388.662,305.211 388.187 C 305.559 387.767,306.085 387.643,306.826 387.806 C 307.430 387.938,308.037 387.864,308.175 387.641 C 308.313 387.418,308.690 387.336,309.013 387.460 C 309.336 387.584,309.600 387.531,309.600 387.343 C 309.600 387.154,310.672 387.015,311.982 387.033 C 313.293 387.052,314.272 386.917,314.159 386.733 C 313.960 386.411,315.307 386.253,317.798 386.305 C 318.457 386.319,319.092 386.174,319.211 385.983 C 319.329 385.791,320.905 385.603,322.713 385.565 C 324.521 385.526,326.000 385.360,326.000 385.197 C 326.000 385.033,327.840 384.867,330.089 384.828 C 332.759 384.782,334.285 384.591,334.483 384.279 C 334.716 383.913,334.789 383.918,334.794 384.300 C 334.797 384.575,334.991 384.800,335.224 384.800 C 335.457 384.800,335.536 384.620,335.400 384.400 C 335.236 384.135,343.392 384.000,359.564 384.000 C 383.234 384.000,384.019 383.976,385.400 383.200 C 386.183 382.760,387.005 382.400,387.225 382.400 C 387.886 382.400,390.459 379.619,390.194 379.191 C 390.060 378.973,390.205 378.696,390.517 378.576 C 390.842 378.452,391.039 377.938,390.978 377.379 C 390.919 376.841,391.035 376.400,391.235 376.400 C 391.451 376.400,391.600 366.270,391.600 351.600 C 391.600 337.370,391.752 326.800,391.956 326.800 C 392.152 326.800,392.338 324.977,392.369 322.749 C 392.400 320.522,392.600 318.374,392.813 317.976 C 393.026 317.578,393.200 315.891,393.200 314.226 C 393.200 312.475,393.369 311.200,393.600 311.200 C 393.825 311.200,394.000 310.075,394.000 308.624 C 394.000 307.207,394.151 305.954,394.336 305.840 C 394.521 305.725,394.705 304.687,394.746 303.533 C 394.787 302.379,394.951 301.337,395.110 301.217 C 395.398 301.002,395.458 300.557,395.636 297.316 C 395.687 296.390,395.860 295.714,396.022 295.813 C 396.183 295.913,396.306 295.591,396.295 295.097 C 396.284 294.604,396.401 293.660,396.555 293.000 C 396.709 292.340,396.921 291.195,397.027 290.457 C 397.132 289.718,397.370 288.818,397.555 288.457 C 397.741 288.095,397.865 287.285,397.831 286.655 C 397.797 286.025,398.006 285.419,398.295 285.308 C 398.695 285.155,398.711 284.975,398.361 284.553 C 398.082 284.217,398.061 284.000,398.306 284.000 C 398.528 284.000,398.667 283.356,398.614 282.569 C 398.562 281.782,398.717 280.923,398.959 280.660 C 399.631 279.930,399.700 279.110,399.121 278.743 C 398.809 278.545,398.778 278.410,399.045 278.406 C 399.734 278.397,399.204 276.466,398.457 276.268 C 398.038 276.156,398.142 276.076,398.747 276.046 C 399.533 276.008,399.661 275.830,399.502 275.000 C 399.397 274.450,399.423 274.000,399.560 274.000 C 399.697 274.000,399.820 273.363,399.833 272.585 C 399.849 271.671,399.693 271.232,399.395 271.346 C 399.141 271.444,398.933 271.281,398.933 270.984 C 398.933 270.687,399.116 270.479,399.340 270.522 C 399.563 270.565,399.778 270.015,399.816 269.300 C 399.854 268.585,399.824 268.000,399.748 268.000 C 399.673 268.000,399.356 268.585,399.045 269.300 M269.406 392.390 C 269.091 392.900,269.746 393.204,270.353 392.829 C 270.754 392.581,270.731 392.459,270.246 392.273 C 269.905 392.142,269.527 392.195,269.406 392.390 M265.233 392.545 C 265.628 392.889,268.781 393.093,268.576 392.762 C 268.453 392.563,267.613 392.400,266.710 392.400 C 265.806 392.400,265.142 392.465,265.233 392.545 " stroke="none" fill="#7be1af" fill-rule="evenodd"></path><path id="path3" d="M78.600 153.041 C 58.165 158.575,53.804 186.468,71.627 197.645 C 85.008 206.036,102.113 200.783,107.954 186.487 C 115.706 167.514,98.318 147.701,78.600 153.041 M149.400 152.981 C 121.454 161.299,126.589 201.400,155.600 201.400 C 183.401 201.400,189.893 163.550,163.800 153.593 C 160.492 152.331,152.697 151.999,149.400 152.981 M220.400 152.883 C 191.512 161.161,197.373 202.870,227.233 201.505 C 248.152 200.549,258.102 176.680,244.418 160.277 C 239.484 154.362,227.795 150.764,220.400 152.883 " stroke="none" fill="#fafbfc" fill-rule="evenodd"></path><path id="path4" d="M158.400 7.200 C 158.400 7.451,155.827 7.600,151.480 7.600 C 147.674 7.600,144.389 7.768,144.180 7.974 C 143.971 8.180,142.360 8.384,140.600 8.427 C 138.840 8.471,137.237 8.601,137.038 8.716 C 136.838 8.830,135.772 8.981,134.668 9.051 C 133.565 9.120,132.558 9.317,132.431 9.488 C 132.304 9.660,131.570 9.785,130.800 9.766 C 130.030 9.748,129.111 9.875,128.758 10.049 C 128.406 10.223,127.506 10.439,126.758 10.529 C 126.011 10.619,125.130 10.800,124.800 10.931 C 124.470 11.061,123.660 11.237,123.000 11.321 C 122.340 11.405,121.530 11.566,121.200 11.680 C 118.925 12.465,117.627 12.800,116.866 12.800 C 116.384 12.800,115.632 12.980,115.195 13.200 C 114.758 13.420,114.042 13.780,113.605 14.000 C 113.168 14.220,112.369 14.400,111.829 14.400 C 111.289 14.400,110.736 14.580,110.600 14.800 C 110.464 15.020,109.924 15.200,109.400 15.200 C 108.876 15.200,108.336 15.380,108.200 15.600 C 108.064 15.820,107.513 16.000,106.976 16.000 C 106.439 16.000,106.000 16.180,106.000 16.400 C 106.000 16.620,105.460 16.800,104.800 16.800 C 104.140 16.800,103.600 16.980,103.600 17.200 C 103.600 17.420,103.161 17.600,102.624 17.600 C 102.087 17.600,101.536 17.780,101.400 18.000 C 101.264 18.220,100.803 18.400,100.376 18.400 C 99.949 18.400,99.600 18.580,99.600 18.800 C 99.600 19.020,99.328 19.200,98.995 19.200 C 98.662 19.200,98.077 19.377,97.695 19.594 C 96.392 20.332,91.581 22.400,91.166 22.400 C 90.939 22.400,90.841 22.543,90.949 22.717 C 91.056 22.891,90.755 23.063,90.278 23.099 C 89.802 23.135,89.349 23.352,89.273 23.582 C 89.196 23.812,88.803 24.000,88.400 24.000 C 87.997 24.000,87.604 24.188,87.527 24.418 C 87.451 24.648,86.986 24.866,86.494 24.903 C 86.002 24.940,85.600 25.112,85.600 25.285 C 85.600 25.458,85.330 25.600,85.000 25.600 C 84.670 25.600,84.400 25.791,84.400 26.024 C 84.400 26.257,84.265 26.371,84.100 26.277 C 83.935 26.183,83.260 26.440,82.600 26.848 C 81.940 27.256,80.635 27.988,79.700 28.475 C 78.765 28.961,78.000 29.504,78.000 29.680 C 78.000 29.856,77.640 30.000,77.200 30.000 C 76.760 30.000,76.400 30.180,76.400 30.400 C 76.400 30.620,76.175 30.800,75.900 30.800 C 75.625 30.801,74.883 31.246,74.251 31.789 C 73.619 32.333,72.764 32.884,72.351 33.016 C 71.938 33.147,71.600 33.422,71.600 33.627 C 71.600 33.832,71.229 34.000,70.776 34.000 C 70.323 34.000,70.064 34.180,70.200 34.400 C 70.336 34.620,70.167 34.800,69.824 34.800 C 69.481 34.800,69.200 34.980,69.200 35.200 C 69.200 35.420,68.930 35.600,68.600 35.600 C 68.270 35.600,68.000 35.780,68.000 36.000 C 68.000 36.220,67.730 36.400,67.400 36.400 C 67.070 36.400,66.800 36.580,66.800 36.800 C 66.800 37.020,66.519 37.200,66.176 37.200 C 65.833 37.200,65.664 37.380,65.800 37.600 C 65.936 37.820,65.720 38.000,65.320 38.000 C 64.920 38.000,64.368 38.360,64.093 38.800 C 63.818 39.240,63.416 39.600,63.200 39.600 C 62.984 39.600,62.310 40.115,61.703 40.744 C 61.097 41.374,60.044 42.173,59.364 42.522 C 58.684 42.870,57.199 44.064,56.064 45.175 C 54.929 46.287,54.000 47.098,54.000 46.979 C 54.000 46.859,53.342 47.400,52.539 48.181 C 51.735 48.961,50.914 49.600,50.715 49.600 C 50.516 49.600,50.464 49.780,50.600 50.000 C 50.736 50.220,50.680 50.400,50.476 50.400 C 50.029 50.400,44.400 56.038,44.400 56.486 C 44.400 56.659,44.130 56.800,43.800 56.800 C 43.470 56.800,43.200 56.942,43.200 57.115 C 43.200 57.289,42.310 58.414,41.222 59.615 C 39.096 61.964,38.763 62.346,37.144 64.288 C 36.564 64.985,36.009 65.476,35.912 65.378 C 35.814 65.281,35.479 65.696,35.167 66.301 C 34.855 66.905,34.285 67.749,33.900 68.175 C 33.515 68.602,33.200 69.108,33.200 69.299 C 33.200 69.491,33.050 69.554,32.866 69.441 C 32.682 69.327,32.232 69.862,31.867 70.629 C 31.501 71.397,30.931 72.128,30.601 72.255 C 30.270 72.382,30.000 72.698,30.000 72.958 C 30.000 73.218,29.467 74.053,28.816 74.815 C 28.165 75.577,27.625 76.335,27.616 76.499 C 27.607 76.664,26.970 77.675,26.200 78.747 C 25.430 79.819,24.800 80.817,24.800 80.964 C 24.800 81.112,24.440 81.620,24.000 82.092 C 23.560 82.564,23.200 83.187,23.200 83.475 C 23.200 83.764,23.020 84.000,22.800 84.000 C 22.580 84.000,22.400 84.360,22.400 84.800 C 22.400 85.240,22.220 85.600,22.000 85.600 C 21.780 85.600,21.600 85.971,21.600 86.424 C 21.600 86.877,21.450 87.155,21.268 87.042 C 21.085 86.929,20.691 87.458,20.393 88.218 C 20.095 88.978,19.704 89.600,19.525 89.600 C 19.346 89.600,19.200 89.960,19.200 90.400 C 19.200 90.840,19.020 91.200,18.800 91.200 C 18.580 91.200,18.400 91.560,18.400 92.000 C 18.400 92.440,18.251 92.800,18.068 92.800 C 17.756 92.800,15.946 96.233,14.748 99.100 C 14.449 99.815,14.069 100.400,13.902 100.400 C 13.736 100.400,13.600 100.760,13.600 101.200 C 13.600 101.640,13.420 102.000,13.200 102.000 C 12.980 102.000,12.800 102.450,12.800 103.000 C 12.800 103.550,12.620 104.000,12.400 104.000 C 12.180 104.000,12.000 104.272,12.000 104.605 C 12.000 104.938,11.833 105.523,11.629 105.905 C 11.102 106.894,10.702 108.081,10.609 108.937 C 10.564 109.342,10.310 109.808,10.043 109.973 C 9.776 110.138,9.601 110.437,9.653 110.637 C 9.706 110.836,9.445 111.697,9.074 112.549 C 8.703 113.401,8.400 114.526,8.400 115.049 C 8.400 115.572,8.220 116.000,8.000 116.000 C 7.780 116.000,7.600 116.540,7.600 117.200 C 7.600 117.860,7.420 118.400,7.200 118.400 C 6.980 118.400,6.800 118.940,6.800 119.600 C 6.800 120.260,6.620 120.800,6.400 120.800 C 6.180 120.800,6.000 121.419,6.000 122.176 C 6.000 122.933,5.820 123.664,5.600 123.800 C 5.380 123.936,5.200 124.577,5.200 125.224 C 5.200 125.871,5.020 126.400,4.800 126.400 C 4.580 126.400,4.400 127.109,4.400 127.976 C 4.400 128.843,4.220 129.664,4.000 129.800 C 3.780 129.936,3.600 130.656,3.600 131.400 C 3.600 132.144,3.420 132.864,3.200 133.000 C 2.980 133.136,2.800 134.057,2.800 135.047 C 2.800 136.145,2.644 136.751,2.400 136.600 C 2.154 136.448,2.000 137.121,2.000 138.353 C 2.000 139.453,1.820 140.464,1.600 140.600 C 1.380 140.736,1.200 142.107,1.200 143.647 C 1.200 145.187,1.044 146.351,0.854 146.233 C 0.015 145.715,-0.132 190.028,0.706 190.866 C 0.984 191.144,1.200 192.373,1.200 193.680 C 1.200 194.960,1.379 196.000,1.600 196.000 C 1.820 196.000,2.000 196.990,2.000 198.200 C 2.000 199.410,2.180 200.400,2.400 200.400 C 2.620 200.400,2.800 201.199,2.800 202.176 C 2.800 203.153,2.980 204.064,3.200 204.200 C 3.420 204.336,3.600 205.232,3.600 206.190 C 3.600 207.149,3.770 207.993,3.979 208.067 C 4.187 208.140,4.400 209.045,4.452 210.078 C 4.504 211.111,4.694 211.865,4.874 211.755 C 5.053 211.644,5.200 212.453,5.200 213.553 C 5.200 214.653,5.380 215.664,5.600 215.800 C 5.820 215.936,6.000 216.937,6.000 218.024 C 6.000 219.111,6.149 220.000,6.332 220.000 C 6.514 220.000,6.705 221.030,6.756 222.288 C 6.807 223.547,7.000 224.762,7.186 224.988 C 7.537 225.416,7.872 228.248,8.243 233.900 C 8.362 235.715,8.599 237.200,8.771 237.200 C 8.942 237.200,9.037 238.084,8.981 239.164 C 8.925 240.245,9.040 242.270,9.237 243.664 C 9.433 245.059,9.677 248.720,9.779 251.800 C 9.880 254.880,10.052 258.030,10.161 258.800 C 10.270 259.570,10.363 266.320,10.368 273.800 C 10.373 281.280,10.494 287.985,10.638 288.700 C 10.910 290.048,11.600 290.503,11.600 289.333 C 11.600 288.967,11.700 288.767,11.823 288.889 C 11.945 289.012,28.766 272.388,49.202 251.947 L 86.358 214.781 85.079 213.322 C 83.856 211.927,79.143 206.955,73.440 201.043 C 70.760 198.266,70.288 197.311,72.222 198.578 C 72.798 198.955,73.353 199.181,73.455 199.079 C 73.557 198.977,72.724 198.330,71.605 197.641 C 55.797 187.914,57.067 163.217,73.800 154.973 C 94.444 144.803,116.563 165.033,108.052 186.300 C 107.138 188.585,107.205 189.208,108.138 187.100 C 109.619 183.758,110.368 180.406,110.386 177.046 C 110.405 173.378,109.342 169.173,107.502 165.636 C 105.671 162.117,106.316 162.481,112.262 168.320 C 115.370 171.372,119.020 174.832,120.373 176.009 L 122.831 178.147 125.690 175.374 C 127.262 173.848,129.055 172.086,129.674 171.458 C 130.500 170.619,130.800 170.486,130.800 170.958 C 130.800 171.311,130.620 171.600,130.400 171.600 C 129.887 171.600,129.865 180.097,130.373 181.772 C 130.578 182.447,130.975 183.810,131.254 184.800 C 132.558 189.413,138.107 196.210,142.329 198.364 C 144.653 199.549,144.414 199.185,141.700 197.404 C 129.239 189.226,127.202 170.842,137.562 160.045 C 140.857 156.610,145.096 154.125,149.846 152.844 C 151.972 152.271,159.228 152.271,161.354 152.844 C 168.633 154.807,174.990 159.901,177.691 165.933 C 178.118 166.887,178.557 167.576,178.668 167.466 C 178.938 167.195,175.943 161.600,175.527 161.600 C 175.347 161.600,175.195 161.375,175.190 161.100 C 175.155 159.390,165.940 152.800,163.583 152.800 C 163.178 152.800,162.736 152.620,162.600 152.400 C 162.464 152.180,161.564 152.000,160.600 152.000 C 159.636 152.000,158.736 151.820,158.600 151.600 C 158.274 151.073,152.000 151.073,152.000 151.600 C 152.000 151.820,151.358 152.000,150.573 152.000 C 149.197 152.000,151.094 150.052,203.983 97.161 C 242.349 58.795,259.004 42.393,259.431 42.557 C 259.779 42.690,259.936 42.621,259.797 42.395 C 259.663 42.178,259.765 42.000,260.025 42.000 C 260.371 42.000,260.360 41.834,259.984 41.381 C 259.572 40.885,259.401 40.865,259.119 41.281 C 258.844 41.686,258.781 41.668,258.831 41.200 C 258.965 39.938,258.787 39.678,257.937 39.900 C 257.460 40.025,257.176 39.962,257.302 39.759 C 257.710 39.099,254.962 36.615,253.799 36.592 C 252.981 36.577,251.522 35.294,252.072 35.074 C 252.421 34.935,252.363 34.852,251.900 34.832 C 251.515 34.814,251.200 34.663,251.200 34.496 C 251.200 34.329,250.821 33.956,250.358 33.667 C 249.661 33.231,249.570 33.232,249.827 33.670 C 249.998 33.962,249.777 33.885,249.336 33.499 C 248.896 33.114,248.386 32.934,248.203 33.099 C 248.021 33.265,247.990 33.194,248.134 32.942 C 248.278 32.690,248.171 32.398,247.898 32.293 C 247.624 32.188,247.226 32.034,247.013 31.951 C 246.800 31.868,246.196 31.402,245.670 30.915 C 245.145 30.428,244.194 29.799,243.557 29.517 C 242.921 29.235,242.400 28.869,242.400 28.702 C 242.400 28.536,242.040 28.400,241.600 28.400 C 241.160 28.400,240.800 28.220,240.800 28.000 C 240.800 27.780,240.555 27.600,240.256 27.600 C 239.957 27.600,239.049 27.150,238.238 26.600 C 237.428 26.050,236.502 25.600,236.182 25.600 C 235.862 25.600,235.600 25.420,235.600 25.200 C 235.600 24.980,235.139 24.800,234.576 24.800 C 233.996 24.800,233.660 24.627,233.800 24.400 C 233.936 24.180,233.677 24.000,233.224 24.000 C 232.771 24.000,232.400 23.820,232.400 23.600 C 232.400 23.380,232.040 23.200,231.600 23.200 C 231.160 23.200,230.800 23.020,230.800 22.800 C 230.800 22.580,230.665 22.421,230.500 22.447 C 229.479 22.609,228.783 22.348,229.041 21.900 C 229.199 21.625,229.184 21.530,229.008 21.689 C 228.832 21.849,228.218 21.736,227.644 21.438 C 227.070 21.141,226.150 20.721,225.600 20.506 C 225.050 20.290,223.818 19.728,222.862 19.257 C 221.906 18.786,220.871 18.400,220.562 18.400 C 220.253 18.400,220.000 18.220,220.000 18.000 C 220.000 17.780,219.631 17.600,219.181 17.600 C 218.730 17.600,217.616 17.240,216.706 16.800 C 215.795 16.360,214.644 16.000,214.148 16.000 C 213.653 16.000,213.136 15.820,213.000 15.600 C 212.864 15.380,212.403 15.200,211.976 15.200 C 211.549 15.200,211.200 15.059,211.200 14.887 C 211.200 14.715,210.713 14.534,210.118 14.485 C 209.522 14.436,208.856 14.216,208.638 13.998 C 208.419 13.779,207.724 13.600,207.094 13.600 C 206.463 13.600,205.599 13.413,205.173 13.185 C 204.277 12.706,197.176 10.839,195.400 10.615 C 193.867 10.422,190.233 9.724,188.309 9.253 C 187.490 9.053,186.178 8.931,185.396 8.984 C 184.613 9.036,183.878 8.926,183.763 8.740 C 183.647 8.553,182.113 8.400,180.353 8.400 C 178.188 8.400,177.238 8.262,177.417 7.973 C 177.562 7.739,177.437 7.580,177.140 7.621 C 175.116 7.899,164.391 7.539,164.600 7.200 C 164.757 6.946,163.671 6.800,161.624 6.800 C 159.741 6.800,158.400 6.966,158.400 7.200 M268.543 48.600 C 268.873 48.930,269.240 49.200,269.359 49.200 C 269.478 49.200,269.471 48.930,269.345 48.600 C 269.218 48.270,268.851 48.000,268.529 48.000 C 268.021 48.000,268.022 48.080,268.543 48.600 M223.200 151.863 C 220.729 152.051,218.625 152.651,215.200 154.143 C 201.334 160.184,196.443 179.270,205.585 191.665 C 207.944 194.864,213.055 198.942,215.800 199.816 C 216.240 199.956,215.629 199.516,214.442 198.839 C 191.840 185.935,200.442 152.400,226.353 152.400 C 234.456 152.400,241.959 156.320,246.241 162.791 C 247.513 164.712,247.873 164.888,246.973 163.148 C 246.113 161.485,241.851 157.205,239.600 155.744 C 234.818 152.640,229.508 151.383,223.200 151.863 M248.278 166.195 C 248.644 166.962,249.014 167.519,249.101 167.432 C 249.284 167.249,248.070 164.800,247.796 164.800 C 247.695 164.800,247.912 165.428,248.278 166.195 M178.812 168.400 C 178.812 168.730,178.987 169.270,179.200 169.600 C 179.545 170.133,179.588 170.133,179.588 169.600 C 179.588 169.270,179.413 168.730,179.200 168.400 C 178.855 167.867,178.812 167.867,178.812 168.400 M179.680 171.000 C 179.680 171.440,179.824 172.250,180.000 172.800 C 180.254 173.592,180.320 173.633,180.320 173.000 C 180.320 172.560,180.176 171.750,180.000 171.200 C 179.746 170.408,179.680 170.367,179.680 171.000 M250.068 171.000 C 250.074 171.440,250.224 172.250,250.400 172.800 L 250.720 173.800 250.732 172.800 C 250.738 172.250,250.589 171.440,250.400 171.000 L 250.056 170.200 250.068 171.000 M180.531 177.000 C 180.533 178.540,180.605 179.121,180.692 178.291 C 180.779 177.461,180.777 176.201,180.689 175.491 C 180.600 174.781,180.529 175.460,180.531 177.000 M250.909 177.200 C 250.909 178.190,250.987 178.595,251.082 178.100 C 251.178 177.605,251.178 176.795,251.082 176.300 C 250.987 175.805,250.909 176.210,250.909 177.200 M179.828 181.900 C 178.792 187.860,174.703 193.932,169.317 197.507 C 168.146 198.285,167.272 199.006,167.376 199.109 C 168.163 199.896,174.338 194.160,176.793 190.362 C 178.874 187.143,181.234 180.400,180.280 180.400 C 180.175 180.400,179.972 181.075,179.828 181.900 M250.222 181.822 C 250.072 182.625,250.038 183.372,250.148 183.482 C 250.258 183.592,250.472 183.025,250.622 182.222 C 250.773 181.419,250.806 180.673,250.696 180.563 C 250.586 180.453,250.373 181.019,250.222 181.822 M248.126 188.109 C 246.696 191.037,243.732 194.590,241.184 196.428 C 237.512 199.076,237.227 199.348,239.192 198.329 C 242.566 196.580,250.148 187.614,249.121 186.588 C 249.028 186.494,248.579 187.179,248.126 188.109 M105.912 190.522 C 103.895 193.703,98.624 198.319,95.843 199.341 C 95.426 199.494,95.191 199.724,95.319 199.852 C 95.764 200.298,99.987 197.544,102.334 195.278 C 104.552 193.136,107.459 189.325,107.127 188.994 C 107.044 188.911,106.498 189.599,105.912 190.522 M76.000 200.400 C 76.330 200.613,76.870 200.788,77.200 200.788 C 77.733 200.788,77.733 200.745,77.200 200.400 C 76.870 200.187,76.330 200.012,76.000 200.012 C 75.467 200.012,75.467 200.055,76.000 200.400 M93.200 200.400 C 92.667 200.745,92.667 200.788,93.200 200.788 C 93.530 200.788,94.070 200.613,94.400 200.400 C 94.933 200.055,94.933 200.012,94.400 200.012 C 94.070 200.012,93.530 200.187,93.200 200.400 M146.400 200.400 C 146.730 200.613,147.270 200.788,147.600 200.788 C 148.133 200.788,148.133 200.745,147.600 200.400 C 147.270 200.187,146.730 200.012,146.400 200.012 C 145.867 200.012,145.867 200.055,146.400 200.400 M163.600 200.400 C 163.067 200.745,163.067 200.788,163.600 200.788 C 163.930 200.788,164.470 200.613,164.800 200.400 C 165.333 200.055,165.333 200.012,164.800 200.012 C 164.470 200.012,163.930 200.187,163.600 200.400 M234.000 200.400 C 233.467 200.745,233.467 200.788,234.000 200.788 C 234.330 200.788,234.870 200.613,235.200 200.400 C 235.733 200.055,235.733 200.012,235.200 200.012 C 234.870 200.012,234.330 200.187,234.000 200.400 M78.400 201.200 C 78.730 201.413,79.360 201.578,79.800 201.566 L 80.600 201.544 79.800 201.200 C 78.604 200.686,77.605 200.686,78.400 201.200 M90.400 201.200 L 89.400 201.520 90.400 201.554 C 90.950 201.573,91.670 201.413,92.000 201.200 C 92.764 200.706,91.942 200.706,90.400 201.200 M149.000 201.200 C 149.440 201.389,150.160 201.538,150.600 201.532 C 151.243 201.523,151.204 201.457,150.400 201.200 C 149.032 200.762,147.981 200.762,149.000 201.200 M160.800 201.200 L 159.800 201.520 160.800 201.554 C 161.350 201.573,162.070 201.413,162.400 201.200 C 163.164 200.706,162.342 200.706,160.800 201.200 M219.600 201.200 C 219.930 201.413,220.560 201.578,221.000 201.566 L 221.800 201.544 221.000 201.200 C 219.804 200.686,218.805 200.686,219.600 201.200 M231.200 201.200 C 230.396 201.457,230.357 201.523,231.000 201.532 C 231.440 201.538,232.160 201.389,232.600 201.200 C 233.619 200.762,232.568 200.762,231.200 201.200 M83.300 202.091 C 84.554 202.352,85.846 202.352,87.100 202.091 C 88.860 201.724,88.720 201.695,85.200 201.695 C 81.680 201.695,81.540 201.724,83.300 202.091 M152.486 201.819 C 152.777 202.111,158.414 202.119,158.705 201.828 C 158.831 201.703,157.433 201.600,155.600 201.600 C 153.767 201.600,152.365 201.699,152.486 201.819 M224.300 201.893 C 225.235 201.977,226.765 201.977,227.700 201.893 C 228.635 201.809,227.870 201.740,226.000 201.740 C 224.130 201.740,223.365 201.809,224.300 201.893 " stroke="none" fill="#63e4fc" fill-rule="evenodd"></path></g></svg>